<svg width="21" height="22" viewBox="0 0 21 22" fill="none" xmlns="http://www.w3.org/2000/svg">
    <path d="M18.9 11.66C18.7397 11.4775 18.6513 11.2429 18.6513 11C18.6513 10.7571 18.7397 10.5225 18.9 10.34L20.18 8.89999C20.3211 8.74266 20.4087 8.54469 20.4302 8.33449C20.4518 8.1243 20.4062 7.91267 20.3 7.72999L18.3 4.26999C18.1949 4.08751 18.0349 3.94286 17.8428 3.85667C17.6506 3.77048 17.4362 3.74714 17.23 3.78999L15.35 4.16999C15.1108 4.21942 14.8618 4.17958 14.6499 4.05799C14.438 3.9364 14.278 3.74147 14.2 3.50999L13.59 1.67999C13.5229 1.48137 13.3951 1.30885 13.2246 1.18683C13.0542 1.06481 12.8497 0.999446 12.64 0.999987H8.64002C8.42195 0.988605 8.20615 1.04891 8.02558 1.1717C7.84501 1.29449 7.7096 1.47301 7.64002 1.67999L7.08002 3.50999C7.00202 3.74147 6.84199 3.9364 6.63013 4.05799C6.41827 4.17958 6.16924 4.21942 5.93002 4.16999L4.00002 3.78999C3.80457 3.76237 3.60532 3.79321 3.42737 3.87863C3.24941 3.96404 3.10072 4.10021 3.00002 4.26999L1.00002 7.72999C0.891178 7.91064 0.84224 8.12107 0.860201 8.33121C0.878161 8.54135 0.962101 8.74043 1.10002 8.89999L2.37002 10.34C2.53034 10.5225 2.61875 10.7571 2.61875 11C2.61875 11.2429 2.53034 11.4775 2.37002 11.66L1.10002 13.1C0.962101 13.2595 0.878161 13.4586 0.860201 13.6688C0.84224 13.8789 0.891178 14.0893 1.00002 14.27L3.00002 17.73C3.10512 17.9125 3.26514 18.0571 3.45727 18.1433C3.6494 18.2295 3.86384 18.2528 4.07002 18.21L5.95002 17.83C6.18924 17.7806 6.43827 17.8204 6.65013 17.942C6.86199 18.0636 7.02202 18.2585 7.10002 18.49L7.71002 20.32C7.7796 20.527 7.91501 20.7055 8.09558 20.8283C8.27615 20.9511 8.49195 21.0114 8.71002 21H12.71C12.9197 21.0005 13.1242 20.9352 13.2946 20.8131C13.4651 20.6911 13.5929 20.5186 13.66 20.32L14.27 18.49C14.348 18.2585 14.508 18.0636 14.7199 17.942C14.9318 17.8204 15.1808 17.7806 15.42 17.83L17.3 18.21C17.5062 18.2528 17.7206 18.2295 17.9128 18.1433C18.1049 18.0571 18.2649 17.9125 18.37 17.73L20.37 14.27C20.4762 14.0873 20.5218 13.8757 20.5002 13.6655C20.4787 13.4553 20.3911 13.2573 20.25 13.1L18.9 11.66ZM17.41 13L18.21 13.9L16.93 16.12L15.75 15.88C15.0298 15.7328 14.2806 15.8551 13.6446 16.2238C13.0086 16.5925 12.5302 17.1818 12.3 17.88L11.92 19H9.36002L9.00002 17.86C8.76987 17.1618 8.2914 16.5725 7.65542 16.2038C7.01945 15.8351 6.27024 15.7128 5.55002 15.86L4.37002 16.1L3.07002 13.89L3.87002 12.99C4.36197 12.44 4.63395 11.7279 4.63395 10.99C4.63395 10.2521 4.36197 9.54001 3.87002 8.98999L3.07002 8.08999L4.35002 5.88999L5.53002 6.12999C6.25024 6.27721 6.99945 6.15487 7.63542 5.78619C8.2714 5.4175 8.74987 4.82815 8.98002 4.12999L9.36002 2.99999H11.92L12.3 4.13999C12.5302 4.83815 13.0086 5.4275 13.6446 5.79619C14.2806 6.16487 15.0298 6.28721 15.75 6.13999L16.93 5.89999L18.21 8.11999L17.41 9.01999C16.9236 9.56875 16.655 10.2767 16.655 11.01C16.655 11.7433 16.9236 12.4512 17.41 13ZM10.64 6.99999C9.84889 6.99999 9.07553 7.23458 8.41774 7.67411C7.75994 8.11363 7.24725 8.73835 6.9445 9.46925C6.64175 10.2002 6.56254 11.0044 6.71688 11.7803C6.87122 12.5563 7.25218 13.269 7.81159 13.8284C8.371 14.3878 9.08373 14.7688 9.85966 14.9231C10.6356 15.0775 11.4398 14.9983 12.1708 14.6955C12.9017 14.3928 13.5264 13.8801 13.9659 13.2223C14.4054 12.5645 14.64 11.7911 14.64 11C14.64 9.93912 14.2186 8.9217 13.4684 8.17156C12.7183 7.42141 11.7009 6.99999 10.64 6.99999ZM10.64 13C10.2445 13 9.85778 12.8827 9.52888 12.6629C9.19998 12.4432 8.94363 12.1308 8.79226 11.7654C8.64088 11.3999 8.60128 10.9978 8.67845 10.6098C8.75562 10.2218 8.9461 9.86548 9.2258 9.58577C9.50551 9.30607 9.86188 9.11559 10.2498 9.03842C10.6378 8.96125 11.0399 9.00085 11.4054 9.15223C11.7708 9.3036 12.0832 9.55995 12.303 9.88885C12.5227 10.2177 12.64 10.6044 12.64 11C12.64 11.5304 12.4293 12.0391 12.0542 12.4142C11.6792 12.7893 11.1705 13 10.64 13Z" fill="#999999"/>
</svg>
